<?xml version="1.0" standalone="no"?>
<!DOCTYPE svg PUBLIC "-//W3C//DTD SVG 20010904//EN"
 "http://www.w3.org/TR/2001/REC-SVG-20010904/DTD/svg10.dtd">
<svg version="1.0" xmlns="http://www.w3.org/2000/svg"
 width="920.000000pt" height="920.000000pt" viewBox="0 0 920.000000 920.000000"
 preserveAspectRatio="xMidYMid meet">

<g transform="translate(0.000000,920.000000) scale(0.100000,-0.100000)"
fill="#000000" stroke="none">
<path d="M2467 6619 c-94 -22 -192 -93 -245 -177 -129 -202 -46 -476 175 -580
l58 -27 2145 0 2145 0 65 32 c134 66 220 192 228 334 10 174 -76 316 -237 393
l-66 31 -2115 2 c-1208 0 -2131 -3 -2153 -8z"/>
<path d="M2438 4981 c-75 -24 -115 -50 -172 -111 -119 -127 -139 -324 -49
-477 36 -62 124 -138 191 -165 l57 -23 2135 0 2135 0 58 23 c81 33 168 116
210 201 30 62 32 72 31 171 0 92 -3 112 -26 163 -37 80 -117 160 -197 200
l-66 32 -2125 2 c-2029 2 -2128 1 -2182 -16z"/>
<path d="M2443 3356 c-104 -33 -205 -123 -250 -224 -34 -76 -42 -186 -18 -268
33 -116 108 -203 224 -258 l66 -31 2135 0 2135 0 66 31 c162 77 247 219 237
395 -8 143 -91 265 -226 331 l-67 33 -2130 2 c-1742 1 -2138 -1 -2172 -11z"/>
</g>
</svg>
